<?xml version="1.0" encoding="utf-8"?>
<!-- Generator: Adobe Illustrator 23.0.6, SVG Export Plug-In . SVG Version: 6.00 Build 0)  -->
<svg version="1.1" id="Layer_1" xmlns="http://www.w3.org/2000/svg" xmlns:xlink="http://www.w3.org/1999/xlink" x="0px" y="0px"
	 viewBox="0 0 36 34" style="enable-background:new 0 0 36 34;" xml:space="preserve">
<style type="text/css">
	.st0{fill:none;stroke:#FFFFFF;stroke-width:0.54;stroke-linecap:round;stroke-linejoin:round;stroke-miterlimit:10;}
</style>
<g>
	<path class="st0" d="M22.3,16.8L20.6,20 M20.5,16.7c-0.6,1.2-0.2,2,0.6,2.3c0.8,0.4,1.7,0.3,2.3-0.9c0.6-1.2-0.1-3.4-0.1-3.4
		S21.1,15.6,20.5,16.7z"/>
	<polyline class="st0" points="28.6,22.7 28.6,12.2 17.7,12.2 13.9,16.1 13.9,22.7 28.6,22.7 	"/>
</g>
<polyline class="st0" points="14.1,16.1 17.8,16.1 17.8,12.3 "/>
<polyline class="st0" points="26,11.1 26,10.2 11.8,10.2 11.8,20.1 12.6,20.1 "/>
<g>
	<polyline class="st0" points="23.7,8.8 23.7,7.9 9.5,7.9 9.5,17.8 10.3,17.8 	"/>
</g>
</svg>
