<?xml version="1.0" encoding="utf-8"?>
<!-- Generator: Adobe Illustrator 23.0.6, SVG Export Plug-In . SVG Version: 6.00 Build 0)  -->
<svg version="1.1" xmlns="http://www.w3.org/2000/svg" xmlns:xlink="http://www.w3.org/1999/xlink" x="0px" y="0px"
	 viewBox="0 0 14.2 14.2" style="enable-background:new 0 0 14.2 14.2;" xml:space="preserve">
<style type="text/css">
	.st0{display:none;}
	.st1{display:inline;fill:#043E4F;}
	.st2{fill:#043E4F;}
	.st3{display:inline;}
</style>
<g id="Layer_1" class="st0">
</g>
<g id="Layer_5" class="st0">
	<path class="st1" d="M12.3,12.7H1.9c-0.9,0-1.7-0.8-1.7-1.7V5.3c0-0.9,0.8-1.7,1.7-1.7h10.5c0.9,0,1.7,0.8,1.7,1.7V11
		C14.1,12,13.3,12.7,12.3,12.7z M1.9,4.3c-0.5,0-1,0.4-1,1V11c0,0.5,0.4,1,1,1h10.5c0.5,0,1-0.4,1-1V5.3c0-0.5-0.4-1-1-1H1.9z"/>
	<path class="st1" d="M9.5,4.3C9.3,4.3,9.2,4.2,9.2,4V2.2H5.1V4c0,0.2-0.2,0.4-0.4,0.4S4.3,4.2,4.3,4V1.9c0-0.2,0.2-0.4,0.4-0.4h4.9
		c0.2,0,0.4,0.2,0.4,0.4V4C9.9,4.2,9.7,4.3,9.5,4.3z"/>
	<path class="st1" d="M7.1,11.2c-1.7,0-3.1-1.4-3.1-3.1s1.4-3.1,3.1-3.1s3.1,1.4,3.1,3.1S8.8,11.2,7.1,11.2z M7.1,5.9
		c-1.3,0-2.3,1-2.3,2.3c0,1.3,1,2.3,2.3,2.3c1.3,0,2.3-1,2.3-2.3C9.4,6.9,8.4,5.9,7.1,5.9z"/>
</g>
<g id="Layer_3">
	<g>
		<path class="st2" d="M7.1,7.7c-1.4,0-2.5-1.1-2.5-2.5c0-1.4,1.1-2.5,2.5-2.5s2.5,1.1,2.5,2.5C9.6,6.6,8.5,7.7,7.1,7.7z M7.1,3.5
			c-1,0-1.8,0.8-1.8,1.7c0,1,0.8,1.7,1.8,1.7c1,0,1.8-0.8,1.8-1.7C8.9,4.3,8.1,3.5,7.1,3.5z"/>
		<path class="st2" d="M7.1,14l-0.3-0.3c-0.2-0.2-4.7-4.6-4.7-8.5c0-2.7,2.2-4.9,4.9-4.9S12,2.6,12,5.3c0,3.9-4.5,8.3-4.7,8.5
			L7.1,14z M7.1,1.2C4.8,1.2,2.9,3,2.9,5.3c0,3.1,3.2,6.7,4.2,7.7c1-1,4.2-4.6,4.2-7.7C11.3,3,9.4,1.2,7.1,1.2z"/>
	</g>
</g>
<g id="Layer_2" class="st0">
	<g class="st3">
		<path class="st2" d="M11.8,13.7H2.4c-1.2,0-2.1-1-2.1-2.1v-8c0-1.2,1-2.1,2.1-2.1h9.4c1.2,0,2.1,1,2.1,2.1v8
			C13.9,12.8,13,13.7,11.8,13.7z M0.9,5.2v6.4c0,0.8,0.7,1.5,1.5,1.5h9.4c0.8,0,1.5-0.7,1.5-1.5V5.2H0.9z M0.9,4.5h12.3V3.6
			c0-0.8-0.7-1.5-1.5-1.5H2.4c-0.8,0-1.5,0.7-1.5,1.5V4.5z"/>
		<path class="st2" d="M10.5,3.1c-0.2,0-0.3-0.2-0.3-0.3v-2c0-0.2,0.2-0.3,0.3-0.3s0.3,0.2,0.3,0.3v2C10.8,3,10.7,3.1,10.5,3.1z
			 M3.7,3.1C3.5,3.1,3.3,3,3.3,2.8v-2c0-0.2,0.2-0.3,0.3-0.3S4,0.6,4,0.8v2C4,3,3.9,3.1,3.7,3.1z"/>
		<path class="st2" d="M3.1,7.4c0,0.2-0.2,0.4-0.4,0.4c-0.2,0-0.4-0.2-0.4-0.4S2.5,7,2.7,7C2.9,7,3.1,7.1,3.1,7.4"/>
		<path class="st2" d="M11.9,7.4c0,0.2-0.2,0.4-0.4,0.4c-0.2,0-0.4-0.2-0.4-0.4S11.3,7,11.5,7C11.7,7,11.9,7.1,11.9,7.4"/>
		<path class="st2" d="M9,7.4c0,0.2-0.2,0.4-0.4,0.4c-0.2,0-0.4-0.2-0.4-0.4S8.3,7,8.6,7C8.8,7,9,7.1,9,7.4"/>
		<path class="st2" d="M6,7.4c0,0.2-0.2,0.4-0.4,0.4c-0.2,0-0.4-0.2-0.4-0.4S5.4,7,5.6,7C5.8,7,6,7.1,6,7.4"/>
		<path class="st2" d="M3.1,9.3c0,0.2-0.2,0.4-0.4,0.4c-0.2,0-0.4-0.2-0.4-0.4c0-0.2,0.2-0.4,0.4-0.4C2.9,8.9,3.1,9.1,3.1,9.3"/>
		<path class="st2" d="M11.9,9.3c0,0.2-0.2,0.4-0.4,0.4c-0.2,0-0.4-0.2-0.4-0.4c0-0.2,0.2-0.4,0.4-0.4C11.7,8.9,11.9,9.1,11.9,9.3"
			/>
		<path class="st2" d="M9,9.3c0,0.2-0.2,0.4-0.4,0.4c-0.2,0-0.4-0.2-0.4-0.4c0-0.2,0.2-0.4,0.4-0.4C8.8,8.9,9,9.1,9,9.3"/>
		<path class="st2" d="M6,9.3c0,0.2-0.2,0.4-0.4,0.4c-0.2,0-0.4-0.2-0.4-0.4c0-0.2,0.2-0.4,0.4-0.4C5.8,8.9,6,9.1,6,9.3"/>
		<path class="st2" d="M3.1,11.2c0,0.2-0.2,0.4-0.4,0.4c-0.2,0-0.4-0.2-0.4-0.4c0-0.2,0.2-0.4,0.4-0.4C2.9,10.8,3.1,11,3.1,11.2"/>
		<path class="st2" d="M9,11.2c0,0.2-0.2,0.4-0.4,0.4c-0.2,0-0.4-0.2-0.4-0.4c0-0.2,0.2-0.4,0.4-0.4C8.8,10.8,9,11,9,11.2"/>
		<path class="st2" d="M6,11.2c0,0.2-0.2,0.4-0.4,0.4c-0.2,0-0.4-0.2-0.4-0.4c0-0.2,0.2-0.4,0.4-0.4C5.8,10.8,6,11,6,11.2"/>
	</g>
</g>
<g id="Layer_4" class="st0">
	<g class="st3">
		<g>
			<path class="st2" d="M11.8,13.7H2.4c-1.2,0-2.1-1-2.1-2.1v-8c0-1.2,1-2.1,2.1-2.1h9.4c1.2,0,2.1,1,2.1,2.1v8
				C13.9,12.8,13,13.7,11.8,13.7z M0.9,5.2v6.4c0,0.8,0.7,1.5,1.5,1.5h9.4c0.8,0,1.5-0.7,1.5-1.5V5.2H0.9z M0.9,4.5h12.3V3.6
				c0-0.8-0.7-1.5-1.5-1.5H2.4c-0.8,0-1.5,0.7-1.5,1.5V4.5z"/>
			<path class="st2" d="M10.5,3.1c-0.2,0-0.3-0.2-0.3-0.3v-2c0-0.2,0.2-0.3,0.3-0.3s0.3,0.2,0.3,0.3v2C10.8,3,10.7,3.1,10.5,3.1z
				 M3.7,3.1C3.5,3.1,3.3,3,3.3,2.8v-2c0-0.2,0.2-0.3,0.3-0.3S4,0.6,4,0.8v2C4,3,3.9,3.1,3.7,3.1z"/>
			<path class="st2" d="M6.7,12.1c-1,0-1.9-0.5-2.4-1.4c-0.7-1.3-0.3-3,1-3.7c0.1-0.1,0.3,0,0.4,0.1c0.1,0.1,0,0.3-0.1,0.4
				c-1,0.6-1.4,1.9-0.8,2.9c0.4,0.8,1.4,1.2,2.2,1c0.2,0,0.3,0.1,0.4,0.2c0,0.2-0.1,0.3-0.2,0.4C7.1,12.1,6.9,12.1,6.7,12.1z"/>
		</g>
		<path class="st2" d="M5.5,8.5C5.4,8.5,5.4,8.5,5.5,8.5C5.2,8.5,5.1,8.3,5.2,8.2l0.2-0.8L4.6,7.2C4.5,7.2,4.3,7,4.4,6.9
			s0.2-0.3,0.4-0.2l1.4,0.3L5.7,8.3C5.7,8.5,5.6,8.5,5.5,8.5z"/>
		<g>
			<path class="st2" d="M8.7,11.3c-0.1,0-0.2-0.1-0.3-0.2c-0.1-0.1,0-0.3,0.1-0.4c0.5-0.3,0.8-0.7,1-1.3c0.2-0.5,0.1-1.1-0.2-1.6
				C8.9,7.1,8,6.7,7.1,6.8c-0.2,0-0.3-0.1-0.4-0.2c0-0.2,0.1-0.3,0.2-0.4C8.1,6,9.3,6.6,9.8,7.6c0.4,0.6,0.4,1.4,0.3,2.1
				c-0.2,0.7-0.6,1.3-1.3,1.6C8.8,11.3,8.7,11.3,8.7,11.3z"/>
		</g>
		<path class="st2" d="M9.5,11.7C9.5,11.7,9.5,11.7,9.5,11.7L8,11.4L8.4,10c0-0.2,0.2-0.3,0.4-0.2C9,9.8,9.1,10,9,10.1l-0.2,0.8
			l0.8,0.2c0.2,0,0.3,0.2,0.2,0.4C9.8,11.6,9.6,11.7,9.5,11.7z"/>
	</g>
</g>
</svg>
