<?xml version="1.0" encoding="utf-8"?>
<!-- Generator: Adobe Illustrator 23.0.6, SVG Export Plug-In . SVG Version: 6.00 Build 0)  -->
<svg version="1.1" id="Layer_1" xmlns="http://www.w3.org/2000/svg" xmlns:xlink="http://www.w3.org/1999/xlink" x="0px" y="0px"
	 viewBox="0 0 28.3 28.3" style="enable-background:new 0 0 28.3 28.3;" xml:space="preserve">
<style type="text/css">
	.st0{display:none;}
	.st1{display:inline;}
	
		.st2{clip-path:url(#SVGID_2_);fill:none;stroke:#F39576;stroke-width:0.5;stroke-linecap:round;stroke-linejoin:round;stroke-miterlimit:10;}
	
		.st3{clip-path:url(#SVGID_4_);fill:none;stroke:#F39576;stroke-width:0.5;stroke-linecap:round;stroke-linejoin:round;stroke-miterlimit:10;}
	.st4{fill:#A5C8DC;}
	.st5{font-family:'MyriadPro-Bold';}
	.st6{font-size:1px;}
	.st7{fill:#669FBA;}
	.st8{fill:#6EB3A6;}
</style>
<g id="Layer_3" class="st0">
	<g class="st1">
		<g>
			<defs>
				<rect id="SVGID_1_" x="7.8" y="7.7" width="12.2" height="13.3"/>
			</defs>
			<clipPath id="SVGID_2_">
				<use xlink:href="#SVGID_1_"  style="overflow:visible;"/>
			</clipPath>
			<path class="st2" d="M18,10.3v2.5H9.8V9.9h0.4 M13.9,14.2v3c0,0.6,0.6,1.1,1.5,1.1h4.3 M19.8,15.1v5.6 M12.6,12.8
				c0,0.7,0.6,1.3,1.3,1.3c0.7,0,1.3-0.6,1.3-1.3 M9.7,12.3c-0.9,0-1.6-0.7-1.6-1.6c0-0.5,0.2-0.9,0.5-1.2c0.3-0.3,0.8-0.4,0.8-0.4"
				/>
		</g>
		<g>
			<defs>
				<rect id="SVGID_3_" x="7.8" y="7.7" width="12.2" height="13.3"/>
			</defs>
			<clipPath id="SVGID_4_">
				<use xlink:href="#SVGID_3_"  style="overflow:visible;"/>
			</clipPath>
			<path class="st3" d="M18.5,10.2V8.5c0-0.3-0.2-0.6-0.9-0.6H8.1l2.6,2.3H18.5z"/>
		</g>
	</g>
</g>
<g id="Layer_4" class="st0">
	<g class="st1">
		<path class="st4" d="M16.5,20.9h-4.6c-0.6,0-1.1-0.5-1.1-1.1v-1.5c0-0.6,0.5-1.1,1.1-1.1h0.7v-1.7c0-0.1,0.1-0.2,0.2-0.2h2.7
			c0.1,0,0.2,0.1,0.2,0.2v1.8h0.7c0.6,0,1.1,0.5,1.1,1.1v1.5C17.6,20.4,17.1,20.9,16.5,20.9z M11.9,17.7c-0.3,0-0.6,0.3-0.6,0.6v1.5
			c0,0.3,0.3,0.6,0.6,0.6h4.6c0.3,0,0.6-0.3,0.6-0.6v-1.5c0-0.3-0.3-0.6-0.6-0.6H11.9z M13.1,17.2h2.2v-1.5h-2.2V17.2z M16.4,19.9
			h-1.5c-0.1,0-0.2-0.1-0.2-0.2v-1c0-0.1,0.1-0.2,0.2-0.2h1.5c0.1,0,0.2,0.1,0.2,0.2v1C16.7,19.8,16.6,19.9,16.4,19.9z M15.1,19.4h1
			v-0.5h-1V19.4z M8,14.5C7.9,14.5,7.9,14.5,8,14.5c-0.2,0-0.2-0.1-0.2-0.2v-1.9l0,0v-1.9l0,0V8.7c0-0.1,0.1-0.2,0.2-0.2
			C8.8,8.2,9.9,8,11,7.8l0,0c1-0.1,2.2-0.2,3.3-0.2c2.4,0,4.7,0.3,6.3,0.9c0.1,0,0.2,0.1,0.2,0.2v1.8l0,0v1.9l0,0v1.8
			c0,0.1,0,0.2-0.1,0.2s-0.2,0.1-0.2,0c-1.6-0.5-3.8-0.9-6.1-0.9c-1.3,0.1-2.4,0.1-3.4,0.3l0,0C9.9,13.9,8.9,14.2,8,14.5L8,14.5z
			 M8.2,12.6v1.3c0.7-0.2,1.6-0.4,2.5-0.5V12C9.8,12.2,8.9,12.3,8.2,12.6z M17.7,13.3c0.9,0.1,1.8,0.3,2.5,0.5v-1.2
			c-0.7-0.2-1.6-0.4-2.5-0.6V13.3z M11.2,12v1.3c0.9-0.2,1.8-0.2,2.8-0.2v-1.3C13,11.8,12.1,11.8,11.2,12z M14.5,13.1
			c0.9,0,1.8,0,2.7,0.1v-1.3c-0.9-0.1-1.8-0.1-2.7-0.1V13.1z M8.2,10.7v1.4c0.7-0.2,1.6-0.4,2.5-0.5v-1.5
			C9.8,10.3,8.9,10.4,8.2,10.7z M17.7,11.5c0.9,0.1,1.8,0.3,2.5,0.5v-1.3c-0.7-0.2-1.6-0.4-2.5-0.6V11.5z M11.2,10.1v1.4
			c0.9-0.2,1.8-0.2,2.8-0.2V9.9C13,9.9,12.1,9.9,11.2,10.1z M14.5,11.3c0.9,0,1.8,0.1,2.7,0.2V10c-0.9-0.1-1.8-0.1-2.7-0.1V11.3z
			 M8.2,8.9v1.3c0.7-0.2,1.6-0.4,2.5-0.5V8.3C9.8,8.5,8.9,8.7,8.2,8.9z M17.7,9.6c0.9,0.1,1.8,0.3,2.5,0.5V8.9
			c-0.7-0.2-1.6-0.4-2.5-0.6V9.6z M11.2,8.3v1.3C12.1,9.4,13,9.4,14,9.4V8.1C13,8.1,12.1,8.2,11.2,8.3z M14.5,9.4
			c0.9,0,1.8,0.1,2.7,0.2V8.3c-0.9-0.1-1.8-0.2-2.7-0.2V9.4z"/>
	</g>
	<text transform="matrix(1 0 0 1 23.983 20.9182)" class="st1 st5 st6">165, 200, 220</text>
</g>
<g id="Layer_6" class="st0">
	<g class="st1">
		<path class="st7" d="M14.2,20.9c-0.1,0-0.2-0.1-0.2-0.2v-5.2l-4.2,5.3c-0.1,0.1-0.2,0.1-0.4,0c-0.1-0.1-0.1-0.2,0-0.4l4.4-5.6H9.6
			c-0.1,0-0.2-0.1-0.2-0.2v-3.8c0-0.1,0.1-0.2,0.2-0.2h1.3c0.1-1.7,1.6-3,3.4-3s3.2,1.3,3.4,3h1.2c0.1,0,0.2,0.1,0.2,0.2v3.8
			c0,0.1-0.1,0.2-0.2,0.2h-4.2l4.2,5.6c0.1,0.1,0.1,0.3,0,0.4s-0.3,0.1-0.4,0l-4-5.4v5.2C14.5,20.8,14.3,20.9,14.2,20.9z M9.8,14.4
			h8.8v-3.3h-1c-0.1,1.7-1.6,3-3.4,3s-3.2-1.3-3.3-3h-1L9.8,14.4L9.8,14.4z M14.2,8.1c-1.5,0-2.8,1.2-2.8,2.7s1.3,2.7,2.9,2.7
			s2.8-1.2,2.8-2.7S15.8,8.1,14.2,8.1z M14.2,12.7c-1.1,0-2-0.8-2-1.9s0.9-1.9,2-1.9s2,0.8,2,1.9S15.3,12.7,14.2,12.7z M14.2,9.5
			c-0.8,0-1.4,0.6-1.4,1.3c0,0.8,0.7,1.4,1.5,1.4s1.5-0.6,1.5-1.4C15.7,10.1,15,9.5,14.2,9.5z"/>
	</g>
	<text transform="matrix(1 0 0 1 24.8635 16.135)" class="st1 st5 st6">102, 159, 186WEB:</text>
</g>
<g>
	<path class="st8" d="M13.5,18.9H0.8c-0.2,0-0.4-0.2-0.4-0.4v-7.9c0-0.1,0-0.2,0.1-0.2l4.5-5.1c0.1-0.1,0.2-0.1,0.3-0.1h14.8
		c0.2,0,0.4,0.2,0.4,0.4v3.8c0,0.2-0.2,0.4-0.4,0.4s-0.4-0.2-0.4-0.4V5.9H6v4.9c0,0.2-0.2,0.4-0.4,0.4H1.2c0,0,0,0,0,0v7.1h12.3
		c0.2,0,0.4,0.2,0.4,0.4S13.7,18.9,13.5,18.9z M1.5,10.4h3.8V6.1L1.5,10.4z M8.4,16.4c-0.1,0-0.1,0-0.2,0C8.1,16.2,8,16,8.1,15.8
		l0.6-1.1c-0.6-0.3-1-0.8-1.1-1.3c-0.2-0.7-0.1-1.5,0.4-2.4c1-1.8,4.3-3,4.5-3c0.1,0,0.2,0,0.3,0c0.1,0,0.1,0.1,0.2,0.2
		c0,0.1,1.1,3.4,0.1,5.2c-0.8,1.6-2.1,2.2-3.6,1.6l-0.6,1.1C8.7,16.3,8.6,16.4,8.4,16.4z M9.7,14.4c0.8,0.3,1.9,0.2,2.7-1.3
		c0.7-1.3,0.2-3.4-0.1-4.3c-0.9,0.3-3.1,1.3-3.7,2.5l0,0c-0.4,0.7-0.5,1.3-0.3,1.8c0.1,0.4,0.4,0.7,0.8,0.9l1.6-3.1
		c0.1-0.2,0.3-0.2,0.5-0.1c0.2,0.1,0.2,0.3,0.1,0.5L9.7,14.4z M8.2,11.2L8.2,11.2L8.2,11.2z"/>
</g>
<path class="st8" d="M20.1,19c-0.2,0-0.4-0.2-0.4-0.4v-2.3h-2.1c-0.2,0-0.4-0.2-0.4-0.4c0-0.2,0.2-0.4,0.4-0.4h2.1v-2.3
	c0-0.2,0.2-0.4,0.4-0.4s0.4,0.2,0.4,0.4v2.3h2.1c0.2,0,0.4,0.2,0.4,0.4c0,0.2-0.2,0.4-0.4,0.4h-2.1v2.3C20.5,18.9,20.3,19,20.1,19z"
	/>
<g>
	<path class="st8" d="M27.5,23.2c-0.1,0-0.2,0-0.3-0.1L24,19.8c-1,1-2.3,1.6-3.8,1.6c-3,0-5.4-2.4-5.4-5.4s2.4-5.4,5.4-5.4
		c3,0,5.4,2.4,5.4,5.4c0,1.2-0.4,2.4-1.1,3.3l3.3,3.3c0.1,0.1,0.1,0.4,0,0.5C27.6,23.2,27.6,23.2,27.5,23.2z M20.1,11.3
		c-2.6,0-4.7,2.1-4.7,4.7c0,2.6,2.1,4.7,4.7,4.7c1.4,0,2.6-0.6,3.5-1.6c0,0,0-0.1,0.1-0.1c0,0,0,0,0.1,0c0.7-0.8,1.1-1.9,1.1-3
		C24.8,13.4,22.7,11.3,20.1,11.3z"/>
</g>
</svg>
