<?xml version="1.0" encoding="utf-8"?>
<!-- Generator: Adobe Illustrator 22.0.0, SVG Export Plug-In . SVG Version: 6.00 Build 0)  -->
<svg version="1.1" id="Layer_1" xmlns="http://www.w3.org/2000/svg" xmlns:xlink="http://www.w3.org/1999/xlink" x="0px" y="0px"
	 viewBox="0 0 48 48" style="enable-background:new 0 0 48 48;" xml:space="preserve">
<style type="text/css">
	.st0{fill:#FFFFFF;}
	.st1{fill:#EA4335;}
	.st2{fill:#4285F4;}
	.st3{fill:#FBBC05;}
	.st4{fill:#34A853;}
	.st5{fill:none;}
</style>
<rect x="0" class="st0" width="48" height="48"/>
<g>
	<path class="st1" d="M24,18.6c1.3,0,2.5,0.5,3.5,1.4l2.6-2.6c-1.6-1.5-3.6-2.3-6-2.3c-3.5,0-6.6,2-8,5l3,2.3
		C19.7,20.1,21.7,18.6,24,18.6z"/>
	<path class="st2" d="M32.6,24.2c0-0.6-0.1-1.2-0.1-1.7H24v3.4h4.9c-0.2,1.1-0.8,2.1-1.8,2.7l2.9,2.2C31.7,29.3,32.6,26.9,32.6,24.2
		z"/>
	<path class="st3" d="M18.9,25.7c-0.2-0.5-0.3-1.1-0.3-1.7s0.1-1.2,0.3-1.7L16,20c-0.6,1.2-1,2.6-1,4s0.3,2.8,1,4
		C16,28,18.9,25.7,18.9,25.7z"/>
	<path class="st4" d="M24,33c2.4,0,4.5-0.8,6-2.2l-2.9-2.2c-0.8,0.5-1.8,0.9-3.1,0.9c-2.3,0-4.3-1.6-5.1-3.7L16,28
		C17.4,31,20.5,33,24,33z"/>
	<path class="st5" d="M15,15h18v18H15V15z"/>
</g>
</svg>
