<?xml version="1.0" encoding="utf-8"?>
<!-- Generator: Adobe Illustrator 23.0.6, SVG Export Plug-In . SVG Version: 6.00 Build 0)  -->
<svg version="1.1" id="Layer_1" xmlns="http://www.w3.org/2000/svg" xmlns:xlink="http://www.w3.org/1999/xlink" x="0px" y="0px"
	 viewBox="0 0 14.2 14.2" style="enable-background:new 0 0 14.2 14.2;" xml:space="preserve">
<style type="text/css">
	.st0{fill:none;stroke:#00565D;stroke-width:0.5;}
	.st1{clip-path:url(#SVGID_2_);fill:#A5C8DC;}
	.st2{clip-path:url(#SVGID_4_);fill:none;stroke:#669FBA;stroke-width:0.5;}
</style>
<g>
	<path class="st0" d="M-61,66.1c1.7,0,3.1-1.4,3.1-3.1c0-1.7-1.4-3.1-3.1-3.1c-1.7,0-3.1,1.4-3.1,3.1S-62.8,66.1-61,66.1z"/>
</g>
<g>
	<g>
		<defs>
			<rect id="SVGID_1_" x="3.7" y="3.7" width="6.7" height="6.7"/>
		</defs>
		<clipPath id="SVGID_2_">
			<use xlink:href="#SVGID_1_"  style="overflow:visible;"/>
		</clipPath>
		<path class="st1" d="M7.1,10.2c1.7,0,3.1-1.4,3.1-3.1S8.8,4,7.1,4S4,5.4,4,7.1S5.4,10.2,7.1,10.2"/>
	</g>
	<g>
		<defs>
			<rect id="SVGID_3_" x="3.7" y="3.7" width="6.7" height="6.7"/>
		</defs>
		<clipPath id="SVGID_4_">
			<use xlink:href="#SVGID_3_"  style="overflow:visible;"/>
		</clipPath>
		<path class="st2" d="M7.1,10.2c1.7,0,3.1-1.4,3.1-3.1S8.8,4,7.1,4S4,5.4,4,7.1S5.4,10.2,7.1,10.2z"/>
	</g>
</g>
</svg>
